<svg width="128" height="128" viewBox="0 0 128 128" xmlns="http://www.w3.org/2000/svg"><g fill="none" fill-rule="evenodd"><path d="M116.214726 13.7775133l7.336505 9.0169989v9.174651l-11.785058-14.484023c-.761738-.8366071-2.0271-1.2969512-3.570539-1.2969512-1.544491 0-2.810553.4610447-3.572291 1.2980022L69.4702485 60.670602v-9.172549l17.4965207-21.4935852-3.9284694-4.828358c-.7617385-.8373078-2.0278004-1.2973016-3.5715905-1.2973016-1.5441402 0-2.8095017.4603441-3.5712403 1.2973016l-6.4252205 7.8931146-4.3916353-3.3817652 6.4054267-8.2641698.0378243-.0427413c1.8723007-2.1233985 4.6940604-3.293177 7.9448451-3.293177 3.2504346 0 6.0721942 1.1694282 7.9451954 3.2924763l.0745978.0879349 3.213661 3.9500607 9.5124505-11.6851729.037824-.0430916c1.873001-2.1233985 4.694061-3.2928266 7.945196-3.2928266 3.250434 0 6.071844 1.1697785 7.944495 3.2931769l.074597.0875845zm.454907 25.9783668l.074598.0879349 6.806965 8.3660709v9.1746509l-11.254818-13.8327447c-.762088-.8366071-2.0278-1.2969512-3.57159-1.2969512-1.54414 0-2.809852.4603441-3.57124 1.2973016L90.1205068 62.0195083h-7.4664384l18.0880506-22.2205366.037824-.0427412c1.872651-2.1237488 4.69406-3.2928267 7.944845-3.2928267 3.250435 0 6.072194 1.1690779 7.944845 3.2924763z" fill="#CEB7FF"/><path d="M47.5989666 49.9315619h7.3332537V36.570575h-7.3332537v13.3609869zm-25.1495046 0h7.3332537V36.570575H22.449462v13.3609869zm41.6511031-39.0734047L38.656397 0 13.2126734 10.8581572 4.44876863 34.9722223h.05466607V67.96967h33.1494177l.9995447.0017735h.0084443l.9991003-.0017735h19.4614597l10.0804601-2.8853491 3.6092757-4.310423V34.9722223h.0533327l-8.7639048-24.1140651z" fill="#C3D600"/><path d="M33.5615171 93.0342759c-1.4500884 1.4556786-3.8325098 1.4556786-5.2822875 0-1.4500884-1.4556787-1.4500884-3.8472395 0-5.3029181 1.4497777-1.4556787 3.8321991-1.4556787 5.2822875 0 1.4500885 1.4556786 1.4500885 3.8472394 0 5.3029181zm16.9513352 0c-1.4500885 1.4556786-3.8321991 1.4556786-5.2822875 0-1.4500885-1.4556787-1.4500885-3.8472395 0-5.3029181 1.4500884-1.4556787 3.832199-1.4556787 5.2822875 0 1.4500884 1.4556786 1.4500884 3.8472394 0 5.3029181zM33.5615171 109.971258c-1.4500884 1.455679-3.8325098 1.455679-5.2822875 0-1.4500884-1.455678-1.4500884-3.847239 0-5.302918 1.4497777-1.455678 3.8321991-1.455678 5.2822875 0 1.4500885 1.455679 1.4500885 3.84724 0 5.302918zm16.9513352 0c-1.4500885 1.455679-3.8321991 1.455679-5.2822875 0-1.4500885-1.455678-1.4500885-3.847239 0-5.302918 1.4500884-1.455678 3.832199-1.455678 5.2822875 0 1.4500884 1.455679 1.4500884 3.84724 0 5.302918zm16.9516459 0c-1.4500885 1.455679-3.8325098 1.455679-5.2822875 0-1.4500885-1.455678-1.4500885-3.847239 0-5.302918 1.4497777-1.455678 3.832199-1.455678 5.2822875 0 1.4500884 1.455679 1.4500884 3.84724 0 5.302918zm-33.9029811 16.936983c-1.4500884 1.455679-3.8325098 1.455679-5.2822875 0-1.4500884-1.455679-1.4500884-3.847239 0-5.302918 1.4497777-1.455679 3.8321991-1.455679 5.2822875 0 1.4500885 1.455679 1.4500885 3.847239 0 5.302918zm16.9513352 0c-1.4500885 1.455679-3.8321991 1.455679-5.2822875 0-1.4500885-1.455679-1.4500885-3.847239 0-5.302918 1.4500884-1.455679 3.832199-1.455679 5.2822875 0 1.4500884 1.455679 1.4500884 3.847239 0 5.302918zm16.9516459 0c-1.4500885 1.455679-3.8325098 1.455679-5.2822875 0-1.4500885-1.455679-1.4500885-3.847239 0-5.302918 1.4497777-1.455679 3.832199-1.455679 5.2822875 0 1.4500884 1.455679 1.4500884 3.847239 0 5.302918z" fill="#B6CCBD"/><path d="M93.4642096 91.6743932L107.77159 105.981773l-4.372415 4.372416-14.3073807-14.3073804c-3.6129759 2.7059487-8.099916 4.3087304-12.9612059 4.3087304-11.9527408 0-21.6423518-9.6896109-21.6423518-21.6423517 0-11.9527408 9.689611-21.6423517 21.6423518-21.6423517s21.6423517 9.6896109 21.6423517 21.6423517c0 4.8612899-1.6027817 9.3482301-4.3087305 12.9612059zM76.1305884 94.17201c8.537672 0 15.4588226-6.9211507 15.4588226-15.4588227s-6.9211506-15.4588227-15.4588226-15.4588227-15.4588227 6.9211507-15.4588227 15.4588227S67.5929164 94.17201 76.1305884 94.17201z" fill="#FF5D3E" fill-rule="nonzero"/></g></svg>